<?xml version="1.0" encoding="UTF-8"?>
<svg width="1930px" height="890px" viewBox="0 0 1930 890" version="1.1" xmlns="http://www.w3.org/2000/svg" xmlns:xlink="http://www.w3.org/1999/xlink">
    <!-- Generator: Sketch 50.2 (55047) - http://www.bohemiancoding.com/sketch -->
    <title>Slice 1</title>
    <desc>Created with Sketch.</desc>
    <defs>
        <path d="M974.653512,886.438141 L1929.16309,333.790001 L1929.16309,0 L0,0 L0,333.790001 L954.611845,886.438602 C960.81053,890.027175 968.454993,890.026999 974.653512,886.438141 Z" id="path-1"></path>
        <linearGradient x1="0%" y1="0%" x2="100%" y2="83.2084871%" id="linearGradient-3">
            <stop stop-color="#FFFFFF" stop-opacity="0" offset="0%"></stop>
            <stop stop-color="#FFFFFF" stop-opacity="0.541184971" offset="50.7135116%"></stop>
            <stop stop-color="#FFFFFF" offset="100%"></stop>
        </linearGradient>
    </defs>
    <g id="Page-1" stroke="none" stroke-width="1" fill="none" fill-rule="evenodd">
        <g id="background">
            <g id="pattern">
                <mask id="mask-2" fill="white">
                    <use xlink:href="#path-1"></use>
                </mask>
                <use id="Mask" fill="#2496ED" opacity="0.86" xlink:href="#path-1"></use>
                <g opacity="0.5" mask="url(#mask-2)">
                    <g transform="translate(-267.000000, -396.000000)">
                        <polygon id="Fill-1" fill="#8F9DAA" points="1576.1285 605.754356 1183.8056 379.102298 1183.8056 378.989697 527.1292 758.777823 527 1062 789.201548 910.491782 789.201548 714.194749 789.201548 713.858336 1183.15682 486.263766 1613.99252 734.870252 2230 378.989697 2230 228"></polygon>
                        <polygon id="Fill-4" fill="#8F9DAA" points="1575.26774 455 1838 303.945106 1838 153 1444 379.527447"></polygon>
                        <polygon id="Fill-5" fill="#F1F1F3" points="1051 152.349456 1051 152.462126 1312.92346 303.554249 1182.02227 379.096137 1182.02227 379.208807 1575.01392 606 2230 228.013751 2230 227.902472 2099.00278 152.304944 1837.00974 303.498609 1575.01392 454.693665 1444.11411 379.151777 1837.00974 152.416223 1837.00974 152.304944 1706.01113 76.7074162 1444.0167 227.902472 1443.92068 227.845441 1313.01948 152.304944 1312.99443 152.318854 1312.99443 152.289643 1313.01948 152.304944 1444.0167 76.7074162 1444.0167 76.596137 1313.01948 1"></polygon>
                        <polygon id="Fill-6" fill="#ABBCCC" points="788 454 919.578302 378.103236 920 377.859096 788.49012 302 788.49012 302.001395"></polygon>
                        <path d="M1182,641 L1056,714 L1182,641 Z" id="Fill-7" fill="#2496ED"></path>
                        <polygon id="Fill-8" fill="#8F9DAA" points="789 304 527 455.61256 527 607 789 455.012241"></polygon>
                        <polygon id="Fill-9" fill="#ABBCCC" points="526.674052 605.811459 527 606 527 454.970242 132 228 132 379.27098"></polygon>
                        <polygon id="Fill-12" fill="#ABBCCC" points="0 758.088397 527 1062 527 758.614025 0.259116611 455"></polygon>
                        <path d="M525.689261,0 L131.431005,227.924685 L131.431005,228.261586 L131.431005,228.262978 L525.689261,456.187662 L788.4178,304.299591 L789.003124,303.959906 L919.946127,379.659619 L919.52625,379.903245 L525.689261,607.850204 L525.362536,607.660872 L131.431005,380.169147 L0,455.962133 L525.819951,760 L1182.92909,379.590011 L1183,379.546854 L1052.15154,303.993318 L525.689261,0 Z M399.535906,228.091743 L525.689261,155.162415 L651.841225,228.091743 L525.689261,301.023855 L399.535906,228.091743 Z" id="Fill-13" fill="#F1F1F3"></path>
                        <polygon id="Fill-14" fill="#8F9DAA" points="1182 1246 1312.78795 1169.87981 1312.78795 1018.12463 1444 942.135129 1443.90437 942.079519 1443.90437 791 1182 942.678715"></polygon>
                        <polygon id="Fill-15" fill="#8F9DAA" points="1444.7507 1093.70908 1444.7507 1245.4021 1313 1321.30559 1313 1473 1576.5 1321.19441 1576.5 1169.57504 1576.5 1169.50139 1840 1017.69441 1840 866"></polygon>
                        <polygon id="Fill-16" fill="#ABBCCC" points="1444.09628 941 1576 864.859096 1444.58604 789 1444 789.339005 1444 940.944197"></polygon>
                        <polygon id="Fill-17" fill="#ABBCCC" points="1313 1169.29683 1445 1245 1445 1093.70317 1313 1018"></polygon>
                        <path d="M788,909.458762 L788,1168.22748 L1314,1472 L1314,1320.13183 L1182.66457,1244.32922 L1182.66457,940.782086 L788,713 L788,909.458762 Z M922.237228,935.799905 L1056.29492,1013.17327 L1017.21453,1035.82056 L1056.38399,1013.12179 L1056.38399,1013.22475 L1056.47446,1013.27623 L1056.38399,1013.3291 L1056.55796,1168.07305 L1056.47446,1168.02296 L922.333258,1090.80264 L922.429289,1090.74838 L991.741304,1050.58206 L922.237228,1090.63846 L922.237228,935.799905 Z" id="Fill-18" fill="#ABBCCC"></path>
                        <polygon id="Fill-19" fill="#2496ED" points="1056 1014.075 1056.065 1014.037 1056 1014"></polygon>
                        <polygon id="Fill-20" fill="#8F9DAA" points="1055 1011.95364 921 935 921 1089 990.474165 1049.16017 1015.93643 1034.47848"></polygon>
                        <polygon id="Fill-21" fill="#F1F1F3" points="1054.82771 1014.10299 1054.82771 1014 1015.72203 1036.70591 990.29257 1051.47205 921.094482 1091.651 921 1091.70667 1054.91663 1168.95129 1055 1169 1054.82771 1014.20597"></polygon>
                        <polygon id="Fill-22" fill="#F1F1F3" points="1312.8357 1321 1444 1245 1312.8357 1169 1182 1245.18785"></polygon>
                        <path d="M1181.66861,785.640682 L1055.70488,712.802795 L1181.66861,639.966299 L1307.63374,712.802795 L1181.66861,785.640682 Z M788,712.634559 L788,712.971031 L1181.67,940.60559 L1444.00792,788.913638 L1444.59099,788.574385 L1575.33723,864.17774 L1312.67446,1016.06017 L1444.00792,1092 L1838,864.065119 L1612.19373,733.650167 L1181.67,485 L788,712.634559 Z" id="Fill-23" fill="#F1F1F3"></path>
                        <polygon id="Fill-24" fill="#8F9DAA" points="1056 714 1182 787 1182 641"></polygon>
                        <polygon id="Fill-25" fill="#ABBCCC" points="1182 787 1182 787 1308 713.999303 1182 641"></polygon>
                    </g>
                </g>
                <path d="M1219.65351,886.438141 L2174.16309,333.790001 L2174.16309,0 L245,0 L245,333.790001 L1199.61185,886.438602 C1205.81053,890.027175 1213.45499,890.026999 1219.65351,886.438141 Z" id="overlay" fill="url(#linearGradient-3)" opacity="0.86" mask="url(#mask-2)"></path>
            </g>
            <path d="M974.653512,886.438141 L1929.16309,333.790001 L1929.16309,0 L0,0 L0,333.790001 L954.611845,886.438602 C960.81053,890.027175 968.454993,890.026999 974.653512,886.438141 Z" id="overlay" fill="#2496ED" opacity="0.86"></path>
        </g>
    </g>
</svg>